<?xml version="1.0" encoding="UTF-8" standalone="no"?>
<svg width="34px" height="25px" viewBox="0 0 34 25" version="1.1" xmlns="http://www.w3.org/2000/svg" xmlns:xlink="http://www.w3.org/1999/xlink">
    <!-- Generator: sketchtool 3.7 (28169) - http://www.bohemiancoding.com/sketch -->
    <title>68DBB72E-968E-42A9-8949-3247C8A3F95D</title>
    <desc>Created with sketchtool.</desc>
    <defs></defs>
    <g id="Services---Engineering" stroke="none" stroke-width="1" fill="none" fill-rule="evenodd">
        <g id="Services---Engineering-V1" transform="translate(-655.000000, -1249.000000)" fill="#000000">
            <g id="Practices" transform="translate(0.000000, 1048.000000)">
                <g id="Group-19" transform="translate(177.000000, 193.000000)">
                    <g id="Group-4" transform="translate(478.000000, 0.000000)">
                        <g id="ic_cached_48px" transform="translate(0.000000, 8.000000)">
                            <path d="M27.8181818,6.25 L21.6363636,12.5 L26.2727273,12.5 C26.2727273,17.6796875 22.1231818,21.875 17,21.875 C15.4313636,21.875 13.9631818,21.4765625 12.665,20.7890625 L10.4086364,23.0703125 C12.325,24.28125 14.5736364,25 17,25 C23.8309091,25 29.3636364,19.40625 29.3636364,12.5 L34,12.5 L27.8181818,6.25 L27.8181818,6.25 Z M7.72727273,12.5 C7.72727273,7.3203125 11.8768182,3.125 17,3.125 C18.5686364,3.125 20.0368182,3.5234375 21.335,4.2109375 L23.5913636,1.9296875 C21.675,0.71875 19.4263636,0 17,0 C10.1690909,0 4.63636364,5.59375 4.63636364,12.5 L0,12.5 L6.18181818,18.75 L12.3636364,12.5 L7.72727273,12.5 L7.72727273,12.5 Z" id="Shape"></path>
                        </g>
                    </g>
                </g>
            </g>
        </g>
    </g>
</svg>