<?xml version="1.0" encoding="UTF-8" standalone="no"?>
<svg width="24px" height="24px" viewBox="0 0 24 24" version="1.1" xmlns="http://www.w3.org/2000/svg" xmlns:xlink="http://www.w3.org/1999/xlink">
    <!-- Generator: sketchtool 3.7 (28169) - http://www.bohemiancoding.com/sketch -->
    <title>86D897B3-89F6-40B8-853B-605C64F398DC</title>
    <desc>Created with sketchtool.</desc>
    <defs></defs>
    <g id="Services---Engineering" stroke="none" stroke-width="1" fill="none" fill-rule="evenodd">
        <g id="Services---Engineering-V1" transform="translate(-181.000000, -1249.000000)" fill="#000000">
            <g id="Practices" transform="translate(0.000000, 1048.000000)">
                <g id="Group-19" transform="translate(177.000000, 193.000000)">
                    <g id="Group-3" transform="translate(4.000000, 0.000000)">
                        <g id="ic_face_48px" transform="translate(0.000000, 8.000000)">
                            <path d="M8.4,11.7 C7.572,11.7 6.9,12.372 6.9,13.2 C6.9,14.028 7.572,14.7 8.4,14.7 C9.228,14.7 9.9,14.028 9.9,13.2 C9.9,12.372 9.228,11.7 8.4,11.7 L8.4,11.7 Z M15.6,11.7 C14.772,11.7 14.1,12.372 14.1,13.2 C14.1,14.028 14.772,14.7 15.6,14.7 C16.428,14.7 17.1,14.028 17.1,13.2 C17.1,12.372 16.428,11.7 15.6,11.7 L15.6,11.7 Z M12,0 C5.37,0 0,5.37 0,12 C0,18.63 5.37,24 12,24 C18.63,24 24,18.63 24,12 C24,5.37 18.63,0 12,0 L12,0 Z M12,21.6 C6.708,21.6 2.4,17.292 2.4,12 C2.4,11.652 2.424,11.31 2.46,10.974 C5.286,9.72 7.542,7.404 8.712,4.53 C10.884,7.59 14.454,9.6 18.498,9.6 C19.428,9.6 20.334,9.486 21.198,9.282 C21.456,10.146 21.6,11.058 21.6,12 C21.6,17.292 17.292,21.6 12,21.6 L12,21.6 Z" id="Shape"></path>
                        </g>
                    </g>
                </g>
            </g>
        </g>
    </g>
</svg>