<?xml version="1.0" encoding="UTF-8" standalone="no"?>
<svg width="16px" height="25px" viewBox="0 0 16 25" version="1.1" xmlns="http://www.w3.org/2000/svg" xmlns:xlink="http://www.w3.org/1999/xlink">
    <!-- Generator: sketchtool 3.7 (28169) - http://www.bohemiancoding.com/sketch -->
    <title>978824DA-B737-4438-8DB7-C5B7462605F2</title>
    <desc>Created with sketchtool.</desc>
    <defs></defs>
    <g id="Services---Engineering" stroke="none" stroke-width="1" fill="none" fill-rule="evenodd">
        <g id="Services---Engineering-V1" transform="translate(-664.000000, -1462.000000)" fill="#000000">
            <g id="Practices" transform="translate(0.000000, 1048.000000)">
                <g id="Group-19" transform="translate(177.000000, 193.000000)">
                    <g id="Group-17" transform="translate(487.000000, 214.000000)">
                        <g id="ic_hourglass_empty_48px" transform="translate(0.000000, 7.000000)">
                            <path d="M0,0 L0,6.57894737 L6,12.5 L0,18.4210526 L0,25 L16,25 L16,18.4210526 L10,12.5 L16,6.57894737 L16,0 L0,0 L0,0 Z M13.3333333,19.0789474 L13.3333333,22.3684211 L2.66666667,22.3684211 L2.66666667,19.0789474 L8,13.8157895 L13.3333333,19.0789474 L13.3333333,19.0789474 Z M8,11.1842105 L2.66666667,5.92105263 L2.66666667,2.63157895 L13.3333333,2.63157895 L13.3333333,5.92105263 L8,11.1842105 L8,11.1842105 Z" id="Shape"></path>
                        </g>
                    </g>
                </g>
            </g>
        </g>
    </g>
</svg>