<?xml version="1.0" encoding="UTF-8" standalone="no"?>
<svg width="75px" height="72px" viewBox="0 0 75 72" version="1.1" xmlns="http://www.w3.org/2000/svg" xmlns:xlink="http://www.w3.org/1999/xlink">
    <!-- Generator: sketchtool 3.6.1 (26313) - http://www.bohemiancoding.com/sketch -->
    <title>B003CACA-F84D-421E-8CED-66E8F0E484D9</title>
    <desc>Created with sketchtool.</desc>
    <defs></defs>
    <g id="Home-Page" stroke="none" stroke-width="1" fill="none" fill-rule="evenodd">
        <g id="Desktop-Landscape-V2" transform="translate(-283.000000, -1258.000000)" fill="#000000">
            <g id="Our-Services-V2" transform="translate(0.000000, 1059.812500)">
                <g id="Group-18" transform="translate(170.000000, 170.816406)">
                    <g id="Group-5">
                        <g id="noun_174016_cc" transform="translate(113.000000, 27.000000)">
                            <g id="Group">
                                <path d="M28.8392857,68.94 C28.5714286,69.66 27.9464286,70.11 27.2321429,70.11 C27.0535714,70.11 26.875,70.11 26.6964286,70.02 C25.8035714,69.75 25.3571429,68.76 25.625,67.86 C25.8928571,66.96 26.875,66.51 27.7678571,66.78 L27.7678571,66.78 C28.6607143,67.05 29.1071429,68.04 28.8392857,68.94 L28.8392857,68.94 Z M34.1964286,68.22 C33.3035714,68.13 32.4107143,68.76 32.3214286,69.75 C32.2321429,70.65 32.8571429,71.55 33.8392857,71.64 L34.0178571,71.64 C34.8214286,71.64 35.625,71.01 35.7142857,70.11 C35.8035714,69.12 35.1785714,68.31 34.1964286,68.22 L34.1964286,68.22 Z M21.875,63.9 C21.0714286,63.45 20,63.63 19.5535714,64.44 C19.1071429,65.25 19.2857143,66.33 20.0892857,66.78 C20.3571429,66.96 20.7142857,67.05 20.9821429,67.05 C21.5178571,67.05 22.1428571,66.78 22.4107143,66.24 C22.8571429,65.43 22.5892857,64.35 21.875,63.9 L21.875,63.9 Z M40.8035714,68.22 C39.9107143,68.31 39.1964286,69.12 39.2857143,70.11 C39.375,71.01 40.0892857,71.64 40.9821429,71.64 L41.1607143,71.64 C42.0535714,71.55 42.7678571,70.74 42.6785714,69.75 C42.5892857,68.76 41.7857143,68.04 40.8035714,68.22 L40.8035714,68.22 Z M16.6071429,59.85 C15.8928571,59.22 14.9107143,59.22 14.1964286,59.85 C13.5714286,60.48 13.5714286,61.56 14.1964286,62.28 C14.5535714,62.64 14.9107143,62.73 15.3571429,62.73 C15.8035714,62.73 16.25,62.55 16.6071429,62.19 C17.3214286,61.56 17.3214286,60.48 16.6071429,59.85 L16.6071429,59.85 L16.6071429,59.85 Z M10.0892857,54.18 C9.28571429,54.72 9.10714286,55.71 9.64285714,56.52 C10,57.06 10.5357143,57.33 11.0714286,57.33 C11.4285714,57.33 11.6964286,57.24 11.9642857,57.06 C12.7678571,56.52 12.9464286,55.53 12.4107143,54.72 C11.9642857,53.91 10.8928571,53.64 10.0892857,54.18 L10.0892857,54.18 Z M9.46428571,48.78 C9.10714286,47.88 8.125,47.43 7.32142857,47.79 C6.42857143,48.15 5.98214286,49.14 6.33928571,49.95 C6.60714286,50.67 7.23214286,51.03 7.94642857,51.03 C8.125,51.03 8.30357143,51.03 8.57142857,50.94 C9.375,50.58 9.82142857,49.68 9.46428571,48.78 L9.46428571,48.78 Z M64.9107143,54.18 C64.1071429,53.64 63.125,53.91 62.5892857,54.72 C62.0535714,55.53 62.3214286,56.52 63.125,57.06 C63.3928571,57.24 63.75,57.33 64.0178571,57.33 C64.5535714,57.33 65.0892857,57.06 65.4464286,56.52 C65.8928571,55.71 65.7142857,54.63 64.9107143,54.18 L64.9107143,54.18 Z M67.6785714,47.7 C66.7857143,47.34 65.8035714,47.79 65.5357143,48.69 C65.1785714,49.59 65.625,50.58 66.5178571,50.85 C66.6964286,50.94 66.875,50.94 67.1428571,50.94 C67.8571429,50.94 68.4821429,50.49 68.75,49.86 C69.0178571,49.05 68.5714286,48.06 67.6785714,47.7 L67.6785714,47.7 Z M53.2142857,63.9 L53.2142857,63.9 C52.4107143,64.35 52.1428571,65.43 52.6785714,66.24 C53.0357143,66.78 53.5714286,67.05 54.1071429,67.05 C54.375,67.05 54.7321429,66.96 55,66.78 C55.8035714,66.33 56.0714286,65.25 55.5357143,64.44 C55,63.63 54.0178571,63.36 53.2142857,63.9 L53.2142857,63.9 Z M47.2321429,66.69 C46.3392857,66.96 45.8928571,67.95 46.1607143,68.85 C46.4285714,69.57 47.0535714,70.02 47.7678571,70.02 C47.9464286,70.02 48.125,70.02 48.3035714,69.93 C49.1964286,69.66 49.6428571,68.67 49.375,67.77 C49.1071429,66.87 48.125,66.42 47.2321429,66.69 L47.2321429,66.69 Z M58.3928571,59.76 C57.7678571,60.39 57.6785714,61.47 58.3928571,62.19 C58.75,62.55 59.1964286,62.73 59.6428571,62.73 C60.0892857,62.73 60.4464286,62.55 60.8035714,62.28 C61.4285714,61.65 61.5178571,60.57 60.8035714,59.85 C60.0892857,59.13 59.0178571,59.13 58.3928571,59.76 L58.3928571,59.76 Z M75,35.37 L75,41.13 C75,42.84 73.6607143,44.19 71.9642857,44.19 L66.25,44.19 C64.5535714,44.19 63.2142857,42.84 63.2142857,41.13 L63.2142857,35.37 C63.2142857,33.66 64.5535714,32.31 66.25,32.31 L66.7857143,32.31 C64.375,20.43 55.0892857,11.07 43.3035714,8.73 L43.3035714,9.36 C43.3035714,11.07 41.9642857,12.42 40.2678571,12.42 L34.5535714,12.42 C32.8571429,12.42 31.5178571,11.07 31.5178571,9.36 L31.5178571,8.82 C19.8214286,11.25 10.625,20.61 8.30357143,32.31 L8.83928571,32.31 C10.5357143,32.31 11.875,33.66 11.875,35.37 L11.875,41.13 C11.875,42.84 10.5357143,44.19 8.83928571,44.19 L3.125,44.19 C1.42857143,44.19 0.0892857143,42.84 0.0892857143,41.13 L0.0892857143,35.37 C0.0892857143,33.66 1.42857143,32.31 3.125,32.31 L4.82142857,32.31 C7.23214286,18.63 17.9464286,7.83 31.5178571,5.31 L31.5178571,3.6 C31.5178571,1.89 32.8571429,0.54 34.5535714,0.54 L40.2678571,0.54 C41.9642857,0.54 43.3035714,1.89 43.3035714,3.6 L43.3035714,5.31 C56.9642857,7.74 67.7678571,18.54 70.2678571,32.4 L71.9642857,32.4 C73.6607143,32.22 75,33.66 75,35.37 L75,35.37 Z M8.48214286,35.64 L3.39285714,35.64 L3.39285714,40.77 L8.48214286,40.77 L8.48214286,35.64 L8.48214286,35.64 Z M39.9107143,3.78 L34.8214286,3.78 L34.8214286,8.91 L39.9107143,8.91 L39.9107143,3.78 L39.9107143,3.78 Z M71.6071429,35.64 L66.5178571,35.64 L66.5178571,40.77 L71.6071429,40.77 L71.6071429,35.64 L71.6071429,35.64 Z" id="Shape"></path>
                            </g>
                        </g>
                    </g>
                </g>
            </g>
        </g>
    </g>
</svg>