<?xml version="1.0" encoding="UTF-8" standalone="no"?>
<svg width="68px" height="80px" viewBox="0 0 68 80" version="1.1" xmlns="http://www.w3.org/2000/svg" xmlns:xlink="http://www.w3.org/1999/xlink">
    <!-- Generator: sketchtool 3.6.1 (26313) - http://www.bohemiancoding.com/sketch -->
    <title>482B49F1-FD7B-4125-97FD-E970C540F556</title>
    <desc>Created with sketchtool.</desc>
    <defs></defs>
    <g id="Home-Page" stroke="none" stroke-width="1" fill="none" fill-rule="evenodd">
        <g id="Desktop-Landscape-V2" transform="translate(-606.000000, -1253.000000)" fill="#000000">
            <g id="Our-Services-V2" transform="translate(0.000000, 1059.812500)">
                <g id="Group-18" transform="translate(170.000000, 170.816406)">
                    <g id="Group-5" transform="translate(320.000000, 0.000000)">
                        <g id="noun_174059_cc" transform="translate(116.000000, 23.000000)">
                            <g id="Group">
                                <path d="M58.5555556,51.7261905 L58.5555556,69.3130952 C58.5555556,71.2880952 57.0444444,73.1690476 55.0611111,73.5452381 L25.1222222,78.8119048 C24.9333333,78.8119048 24.65,78.9059524 24.4611111,78.9059524 C23.6111111,78.9059524 22.8555556,78.6238095 22.2888889,78.1535714 C21.5333333,77.5892857 21.1555556,76.7428571 21.0611111,75.802381 L21.0611111,75.6142857 L21.0611111,69.3130952 L14.8277778,70.2535714 L14.5444444,70.2535714 C10.2,70.2535714 6.70555556,66.7738095 6.70555556,62.447619 L6.70555556,53.6071429 L5.76111111,53.6071429 C3.58888889,53.6071429 1.79444444,52.7607143 0.944444444,51.2559524 C3.63264974e-13,49.7511905 0.0944444444,47.7761905 1.13333333,45.8952381 L6.8,35.0797619 L6.8,30.7535714 C6.8,18.997619 13.7888889,8.08809524 24.4611111,3.10357143 C25.3111111,2.72738095 26.4444444,3.10357143 26.8222222,3.95 C27.2,4.79642857 26.8222222,5.925 25.9722222,6.30119048 C16.4333333,10.7214286 10.2944444,20.3142857 10.2944444,30.6595238 L10.2944444,35.4559524 C10.2944444,35.4559524 10.2944444,35.4559524 10.2944444,35.55 L10.2944444,35.7380952 L10.2944444,35.9261905 C10.2944444,36.0202381 10.2944444,36.0202381 10.2,36.1142857 C10.2,36.2083333 10.2,36.2083333 10.1055556,36.302381 C10.1055556,36.302381 10.1055556,36.302381 10.1055556,36.3964286 L4.25,47.5880952 C3.87222222,48.3404762 3.77777778,49.0928571 3.96666667,49.4690476 C4.25,49.8452381 4.91111111,50.127381 5.76111111,50.127381 L8.5,50.127381 C9.44444444,50.127381 10.2944444,50.8797619 10.2944444,51.9142857 L10.2944444,62.5416667 C10.2944444,64.8928571 12.1833333,66.7738095 14.45,66.7738095 L22.6666667,65.5511905 C23.1388889,65.4571429 23.7055556,65.6452381 24.0833333,65.927381 C24.4611111,66.3035714 24.7444444,66.7738095 24.7444444,67.2440476 L24.7444444,75.4261905 L54.6833333,70.1595238 C54.9666667,70.0654762 55.25,69.7833333 55.25,69.5011905 L55.25,51.7261905 C55.25,50.7857143 56.0055556,49.9392857 57.0444444,49.9392857 C58.0833333,49.9392857 58.5555556,50.7857143 58.5555556,51.7261905 L58.5555556,51.7261905 Z M32.1111111,4.13809524 L32.3944444,4.13809524 C33.3388889,3.95 34,3.00952381 33.8111111,2.06904762 C33.6222222,1.12857143 32.6777778,0.470238095 31.7333333,0.658333333 C30.7888889,0.846428571 30.1277778,1.78690476 30.3166667,2.72738095 C30.5055556,3.4797619 31.2611111,4.13809524 32.1111111,4.13809524 L32.1111111,4.13809524 Z M46.1833333,5.17261905 C46.3722222,5.26666667 46.5611111,5.26666667 46.75,5.26666667 C47.5055556,5.26666667 48.1666667,4.79642857 48.45,4.04404762 C48.7333333,3.10357143 48.2611111,2.06904762 47.3166667,1.78690476 C46.3722222,1.5047619 45.3333333,1.975 45.05,2.91547619 C44.7666667,3.76190476 45.2388889,4.79642857 46.1833333,5.17261905 L46.1833333,5.17261905 Z M63.8444444,25.1107143 C64.0333333,25.9571429 64.7888889,26.5214286 65.6388889,26.5214286 L66.0166667,26.5214286 C66.9611111,26.3333333 67.6222222,25.3928571 67.4333333,24.452381 C67.2444444,23.5119048 66.3,22.8535714 65.3555556,23.0416667 C64.2222222,23.2297619 63.6555556,24.1702381 63.8444444,25.1107143 L63.8444444,25.1107143 Z M52.4166667,8.27619048 C52.4166667,8.18214286 52.4166667,8.18214286 52.4166667,8.27619048 C52.7,8.46428571 53.0777778,8.55833333 53.4555556,8.55833333 C54.0222222,8.55833333 54.5888889,8.27619048 54.9666667,7.80595238 C55.5333333,6.95952381 55.3444444,5.925 54.4944444,5.36071429 C53.6444444,4.79642857 52.6055556,4.98452381 52.0388889,5.83095238 C51.3777778,6.58333333 51.5666667,7.71190476 52.4166667,8.27619048 L52.4166667,8.27619048 Z M63.1833333,19.5619048 C63.4666667,19.5619048 63.75,19.4678571 63.9388889,19.3738095 C64.7888889,18.9035714 65.1666667,17.8690476 64.6944444,17.022619 C64.2222222,16.1761905 63.1833333,15.8 62.3333333,16.2702381 C61.4833333,16.7404762 61.1055556,17.775 61.4833333,18.6214286 C61.8611111,19.1857143 62.5222222,19.5619048 63.1833333,19.5619048 L63.1833333,19.5619048 Z M39.3833333,3.76190476 L39.4777778,3.76190476 C40.4222222,3.76190476 41.1777778,3.00952381 41.2722222,2.16309524 C41.3666667,1.22261905 40.6111111,0.376190476 39.6666667,0.282142857 C38.7222222,0.188095238 37.8722222,0.94047619 37.7777778,1.88095238 C37.6833333,2.82142857 38.4388889,3.66785714 39.3833333,3.76190476 L39.3833333,3.76190476 Z M62.5222222,44.5785714 C61.6722222,44.0142857 60.5388889,44.2964286 60.0666667,45.1428571 C59.5,45.9892857 59.7833333,47.0238095 60.6333333,47.5880952 C60.9166667,47.7761905 61.2944444,47.8702381 61.5777778,47.8702381 C62.1444444,47.8702381 62.7111111,47.5880952 63.0888889,47.0238095 C63.6555556,46.177381 63.3722222,45.1428571 62.5222222,44.5785714 L62.5222222,44.5785714 Z M60.35,10.4392857 L60.35,10.4392857 C59.6888889,9.68690476 58.5555556,9.59285714 57.8,10.2511905 C57.0444444,10.9095238 56.95,12.0380952 57.6111111,12.7904762 L57.6111111,12.7904762 C57.9888889,13.1666667 58.4611111,13.3547619 58.9333333,13.3547619 C59.3111111,13.3547619 59.7833333,13.1666667 60.0666667,12.8845238 C60.9166667,12.3202381 61.0111111,11.1916667 60.35,10.4392857 L60.35,10.4392857 Z M65.3555556,37.7130952 C64.4111111,37.4309524 63.3722222,37.9011905 63.0888889,38.8416667 C62.8055556,39.7821429 63.2777778,40.8166667 64.2222222,41.0988095 C64.4111111,41.1928571 64.6,41.1928571 64.7888889,41.1928571 C65.5444444,41.1928571 66.2055556,40.722619 66.4888889,39.9702381 L66.4888889,39.9702381 C66.7722222,39.0297619 66.3,37.9952381 65.3555556,37.7130952 L65.3555556,37.7130952 Z M66.2055556,30.377381 C65.2611111,30.2833333 64.4111111,31.0357143 64.3166667,32.0702381 C64.2222222,33.0107143 64.9777778,33.8571429 66.0166667,33.9511905 L66.1111111,33.9511905 C67.0555556,33.9511905 67.8111111,33.1988095 67.9055556,32.2583333 C68,31.2238095 67.2444444,30.377381 66.2055556,30.377381 L66.2055556,30.377381 Z M25.6888889,41.9452381 C28.9,45.1428571 33.15,46.9297619 37.6833333,46.9297619 C42.2166667,46.9297619 46.4666667,45.1428571 49.6777778,41.9452381 C50.3388889,41.2869048 50.3388889,40.1583333 49.6777778,39.4059524 C49.0166667,38.747619 47.8833333,38.747619 47.1277778,39.4059524 C44.5777778,41.9452381 41.2722222,43.3559524 37.6833333,43.3559524 C34.0944444,43.3559524 30.7888889,41.9452381 28.2388889,39.4059524 C23.0444444,34.2333333 23.0444444,25.7690476 28.2388889,20.5964286 C28.9,19.9380952 28.9,18.8095238 28.2388889,18.0571429 C27.5777778,17.3988095 26.4444444,17.3988095 25.6888889,18.0571429 C19.0777778,24.7345238 19.0777778,35.3619048 25.6888889,41.9452381 L25.6888889,41.9452381 Z M54.5888889,28.1202381 C54.4944444,27.1797619 53.55,26.427381 52.6055556,26.5214286 C51.6611111,26.6154762 50.9055556,27.4619048 51,28.4964286 C51.0944444,29.4369048 51.85,30.0952381 52.7944444,30.0952381 L52.9833333,30.0952381 C54.0222222,30.0011905 54.6833333,29.1547619 54.5888889,28.1202381 L54.5888889,28.1202381 Z M44.8611111,18.7154762 C45.1444444,18.9035714 45.5222222,18.997619 45.8055556,18.997619 C46.3722222,18.997619 46.9388889,18.7154762 47.3166667,18.1511905 C47.8833333,17.3047619 47.6,16.1761905 46.75,15.7059524 C45.9,15.1416667 44.7666667,15.4238095 44.2944444,16.2702381 C43.7277778,17.1166667 44.0111111,18.2452381 44.8611111,18.7154762 L44.8611111,18.7154762 Z M50.3388889,34.4214286 C50.0555556,35.3619048 50.5277778,36.3964286 51.4722222,36.6785714 C51.6611111,36.772619 51.85,36.772619 52.0388889,36.772619 C52.7944444,36.772619 53.4555556,36.302381 53.7388889,35.55 C54.0222222,34.6095238 53.55,33.575 52.6055556,33.2928571 C51.6611111,33.0107143 50.7166667,33.4809524 50.3388889,34.4214286 L50.3388889,34.4214286 Z M39.1944444,16.8345238 L39.3833333,16.8345238 C40.2333333,16.8345238 41.0833333,16.1761905 41.1777778,15.2357143 C41.2722222,14.2952381 40.6111111,13.3547619 39.5722222,13.2607143 C38.6277778,13.1666667 37.6833333,13.825 37.5888889,14.8595238 C37.4944444,15.8 38.25,16.6464286 39.1944444,16.8345238 L39.1944444,16.8345238 Z M32.1111111,14.1071429 C31.1666667,14.3892857 30.6944444,15.4238095 30.9777778,16.3642857 C31.2611111,17.1166667 31.9222222,17.5869048 32.6777778,17.5869048 C32.8666667,17.5869048 33.0555556,17.5869048 33.2444444,17.4928571 C34.1888889,17.2107143 34.6611111,16.1761905 34.3777778,15.2357143 C34.0944444,14.2952381 33.0555556,13.7309524 32.1111111,14.1071429 L32.1111111,14.1071429 Z M50.5277778,23.7940476 C50.8111111,23.7940476 51.1888889,23.7 51.4722222,23.5119048 C52.3222222,22.947619 52.5111111,21.9130952 52.0388889,21.0666667 C51.4722222,20.2202381 50.4333333,20.0321429 49.5833333,20.502381 C48.7333333,21.0666667 48.5444444,22.1011905 49.0166667,22.947619 C49.3944444,23.5119048 49.9611111,23.7940476 50.5277778,23.7940476 L50.5277778,23.7940476 Z" id="Shape"></path>
                            </g>
                        </g>
                    </g>
                </g>
            </g>
        </g>
    </g>
</svg>