<?xml version="1.0" encoding="UTF-8" standalone="no"?>
<svg width="57px" height="61px" viewBox="0 0 57 61" version="1.1" xmlns="http://www.w3.org/2000/svg" xmlns:xlink="http://www.w3.org/1999/xlink">
    <!-- Generator: sketchtool 3.6.1 (26313) - http://www.bohemiancoding.com/sketch -->
    <title>8FBBA091-6311-4C51-8C1B-38B9573CA244</title>
    <desc>Created with sketchtool.</desc>
    <defs></defs>
    <g id="Home-Page" stroke="none" stroke-width="1" fill="none" fill-rule="evenodd">
        <g id="Desktop-Landscape-V2" transform="translate(-932.000000, -1262.000000)" fill="#000000">
            <g id="Our-Services-V2" transform="translate(0.000000, 1059.812500)">
                <g id="Group-18" transform="translate(170.000000, 170.816406)">
                    <g id="Group-5" transform="translate(640.000000, 0.000000)">
                        <g id="noun_174089_cc" transform="translate(122.000000, 32.000000)">
                            <g id="Group">
                                <path d="M45.4131148,21.65625 C51.3,21.65625 56.1590164,16.875 56.1590164,10.875 C56.1590164,4.875 51.3934426,0.09375 45.4131148,0.09375 C39.4327869,0.09375 34.6672131,4.875 34.6672131,10.875 C34.6672131,16.875 39.5262295,21.65625 45.4131148,21.65625 L45.4131148,21.65625 Z M45.4131148,3.65625 C49.3377049,3.65625 52.6081967,6.84375 52.6081967,10.875 C52.6081967,14.90625 49.4311475,18.09375 45.4131148,18.09375 C41.395082,18.09375 38.2180328,14.90625 38.2180328,10.875 C38.2180328,6.84375 41.395082,3.65625 45.4131148,3.65625 L45.4131148,3.65625 Z M45.4131148,38.34375 C41.9557377,38.34375 38.9655738,39.9375 37.0032787,42.46875 L20.8377049,33.375 C21.2114754,32.25 21.3983607,31.125 21.3983607,29.90625 C21.3983607,24 16.6327869,19.125 10.652459,19.125 C4.67213115,19.125 0,24.09375 0,30 C0,35.90625 4.76557377,40.78125 10.7459016,40.78125 C14.2032787,40.78125 17.1934426,39.1875 19.1557377,36.65625 L35.3213115,45.75 C34.947541,46.875 34.7606557,48 34.7606557,49.21875 C34.7606557,55.125 39.5262295,60 45.5065574,60 C51.4868852,60 56.252459,55.21875 56.252459,49.21875 C56.252459,43.21875 51.3,38.34375 45.4131148,38.34375 L45.4131148,38.34375 Z M10.652459,37.21875 C6.72786885,37.21875 3.45737705,34.03125 3.45737705,30 C3.45737705,26.0625 6.63442623,22.78125 10.652459,22.78125 C14.6704918,22.78125 17.847541,25.96875 17.847541,30 C17.847541,33.9375 14.6704918,37.21875 10.652459,37.21875 L10.652459,37.21875 Z M45.4131148,56.34375 C41.4885246,56.34375 38.2180328,53.15625 38.2180328,49.125 C38.2180328,45.09375 41.395082,41.90625 45.4131148,41.90625 C49.4311475,41.90625 52.6081967,45.09375 52.6081967,49.125 C52.6081967,53.15625 49.3377049,56.34375 45.4131148,56.34375 L45.4131148,56.34375 Z M23.2672131,23.0625 C22.8,22.21875 23.0803279,21.09375 23.9213115,20.625 C24.7622951,20.15625 25.8836066,20.4375 26.3508197,21.28125 C26.8180328,22.125 26.5377049,23.25 25.6967213,23.71875 C25.4163934,23.90625 25.1360656,23.90625 24.8557377,23.90625 C24.2016393,24 23.6409836,23.625 23.2672131,23.0625 L23.2672131,23.0625 Z M29.6213115,19.59375 C29.1540984,18.75 29.4344262,17.625 30.2754098,17.15625 C31.1163934,16.6875 32.2377049,16.96875 32.704918,17.8125 C33.1721311,18.65625 32.8918033,19.78125 32.0508197,20.25 C31.7704918,20.4375 31.4901639,20.4375 31.2098361,20.4375 C30.5557377,20.4375 29.9016393,20.15625 29.6213115,19.59375 L29.6213115,19.59375 Z" id="Shape"></path>
                            </g>
                        </g>
                    </g>
                </g>
            </g>
        </g>
    </g>
</svg>